/* XPM */
static char *aef92931c43847708f74197cf098ab33AyGlBXaVdI4tpIlW[] = {
/* columns rows colors chars-per-pixel */
"100 100 2 1 ",
"  c black",
". c #B4B4B4",
/* pixels */
"............................. ........................................ .............................",
"............................. ........................................ .............................",
"............................. ........................................ .............................",
"............................. ........................................ .............................",
"............................. ........................................ .............................",
"............................. ........................................ .............................",
"............................. ........................................ .............................",
"............................. ........................................ .............................",
"............................. ........................................ .............................",
"............................. ........................................ .............................",
"............................. ........................................ .............................",
"............................. ........................................ .............................",
"............................. ........................................ .............................",
"............................. ........................................ .............................",
"............................. ........................................ .............................",
"............................. ........................................ .............................",
"                                                                                                    ",
"............................. ........................................ .............................",
"............................. ........................................ .............................",
"............................. ........................................ .............................",
"............................. ........................................ .............................",
"............................. ........................................ .............................",
"............................. ........................................ .............................",
"............................. ........................................ .............................",
"............................. ........................................ .............................",
"............................. ........................................ .............................",
"............................. ........................................ .............................",
"............................. ........................................ .............................",
"............................. ........................................ .............................",
"............................. ........................................ .............................",
"............................. ........................................ .............................",
"............................. ........................................ .............................",
"............................. ........................................ .............................",
"............................. ........................................ .............................",
"............................. ........................................ .............................",
"............................. ........................................ .............................",
"............................. ........................................ .............................",
"............................. ........................................ .............................",
"............................. ........................................ .............................",
"............................. ........................................ .............................",
"............................. ........................................ .............................",
"............................. ........................................ .............................",
"............................. ........................................ .............................",
"............................. ........................................ .............................",
"                                                                                                    ",
"............................. ........................................ .............................",
"............................. ........................................ .............................",
"............................. ........................................ .............................",
"............................. ........................................ .............................",
"............................. ........................................ .............................",
"............................. ........................................ .............................",
"............................. ........................................ .............................",
"............................. ........................................ .............................",
"............................. ........................................ .............................",
"............................. ........................................ .............................",
"............................. ........................................ .............................",
"............................. ........................................ .............................",
"............................. ........................................ .............................",
"............................. ........................................ .............................",
"............................. ........................................ .............................",
"............................. ........................................ .............................",
"............................. ........................................ .............................",
"............................. ........................................ .............................",
"............................. ........................................ .............................",
"............................. ........................................ .............................",
"............................. ........................................ .............................",
"............................. ........................................ .............................",
"............................. ........................................ .............................",
"............................. ........................................ .............................",
"............................. ........................................ .............................",
"............................. ........................................ .............................",
"............................. ........................................ .............................",
"............................. ........................................ .............................",
"............................. ........................................ .............................",
"............................. ........................................ .............................",
"............................. ........................................ .............................",
"............................. ........................................ .............................",
"............................. ........................................ .............................",
"                                                                                                    ",
"............................. ........................................ .............................",
"............................. ........................................ .............................",
"............................. ........................................ .............................",
"............................. ........................................ .............................",
"............................. ........................................ .............................",
"............................. ........................................ .............................",
"............................. ........................................ .............................",
"............................. ........................................ .............................",
"............................. ........................................ .............................",
"............................. ........................................ .............................",
"............................. ........................................ .............................",
"............................. ........................................ .............................",
"............................. ........................................ .............................",
"............................. ........................................ .............................",
"............................. ........................................ .............................",
"............................. ........................................ .............................",
"............................. ........................................ .............................",
"............................. ........................................ .............................",
"............................. ........................................ .............................",
"............................. ........................................ .............................",
"............................. ........................................ ............................."
};
